<?xml version="1.0" encoding="UTF-8"?><svg id="Layer_2" xmlns="http://www.w3.org/2000/svg" viewBox="0 0 310.59 329.6"><defs><style>.cls-1{fill:#9cebc2;}.cls-2,.cls-3{fill:#298fbf;}.cls-3{font-family:BodoniSvtyTwoSCITCTT-Book, 'Bodoni 72 Smallcaps';font-size:57.78px;}</style></defs><g><path class="cls-2" d="M77.91,164.05s-.24,3.7,4.45,.47c4.7-3.24,33.87-20.81,45.98-15.96,12.12,4.86,12.61,7.63,12.61,7.63l.2,71.28h-.05l.18,15.43-19.06-15.43H57.44V110.81l-26.97,.12L152.86,32.89l-.39,87.69h-13.99s-45.25,3.24-60.58,43.47Z"/><path class="cls-1" d="M225.66,78.74v-27.47h-24.48v11.86l-47.97-30.59-.58,88.18h13.57c19.32,22.23,32.43-.2,32.43-.2l24.97,.12-.25,35.15-24.48-.46c-17.55-23.93-31.89,.81-31.89,.81l-.04,70.96-.05,.03h81.77V110.47l26.93,.12-49.94-31.85Z"/></g><text class="cls-3" transform="translate(32.24 302.53) scale(.53 1)"><tspan x="0" y="0">Greenbar &amp; Artisans</tspan></text></svg>